<?xml version="1.0" ?>
<!-- Uploaded to: SVG Repo, www.svgrepo.com, Generator: SVG Repo Mixer Tools -->
<svg width="800px" height="800px" viewBox="0 0 64 64" xmlns="http://www.w3.org/2000/svg">
<defs>
<style>.cls-1{fill:#d8d8fc;}.cls-2{fill:#47568c;}.cls-3{fill:#fdbf00;}.cls-4{fill:#0095ff;}</style>
</defs>
<title/>
<g id="store">
<path class="cls-1" d="M13,54H51V25H13ZM34.889,31a1,1,0,0,1,1-1h12a1,1,0,0,1,1,1V51a1,1,0,0,1-1,1h-12a1,1,0,0,1-1-1ZM18,31H30a1,1,0,0,1,0,2H18a1,1,0,0,1,0-2Zm-1,5a1,1,0,0,1,1-1H30a1,1,0,0,1,1,1V48a1,1,0,0,1-1,1H18a1,1,0,0,1-1-1Z"/>
<polygon class="cls-2" points="58.613 15 55.279 5 8.721 5 5.387 15 58.613 15"/>
<rect class="cls-1" height="6" width="2" x="9" y="17"/>
<rect class="cls-1" height="6" width="2" x="29" y="17"/>
<rect class="cls-1" height="6" width="2" x="13" y="17"/>
<rect class="cls-1" height="6" width="2" x="33" y="17"/>
<rect class="cls-1" height="6" width="2" x="17" y="17"/>
<rect class="cls-1" height="6" width="2" x="37" y="17"/>
<rect class="cls-1" height="6" width="2" x="21" y="17"/>
<rect class="cls-1" height="6" width="2" x="41" y="17"/>
<rect class="cls-1" height="6" width="2" x="45" y="17"/>
<rect class="cls-1" height="6" width="2" x="49" y="17"/>
<rect class="cls-1" height="6" width="2" x="53" y="17"/>
<rect class="cls-1" height="6" width="2" x="25" y="17"/>
<path class="cls-3" d="M46.889,32h-10V50h10Zm-2,11a1,1,0,0,1-2,0V39a1,1,0,0,1,2,0Z"/>
<path d="M35.889,52h12a1,1,0,0,0,1-1V31a1,1,0,0,0-1-1h-12a1,1,0,0,0-1,1V51A1,1,0,0,0,35.889,52Zm1-20h10V50h-10Z"/>
<rect class="cls-4" height="4" width="4" x="19" y="43"/>
<rect class="cls-4" height="4" width="4" x="25" y="37"/>
<rect class="cls-2" height="3" width="54" x="5" y="56"/>
<path d="M60,54H53V25h3a1,1,0,0,0,1-1V17h3a1,1,0,0,0,.949-1.316l-4-12A1,1,0,0,0,56,3H8a1,1,0,0,0-.949.684l-4,12A1,1,0,0,0,4,17H7v7a1,1,0,0,0,1,1h3V54H4a1,1,0,0,0-1,1v5a1,1,0,0,0,1,1H60a1,1,0,0,0,1-1V55A1,1,0,0,0,60,54Zm-1,5H5V56H59ZM55.279,5l3.334,10H5.387L8.721,5ZM51,54H13V25H51ZM11,17v6H9V17Zm40,0v6H49V17ZM17,23V17h2v6Zm4,0V17h2v6Zm4,0V17h2v6Zm4,0V17h2v6Zm4,0V17h2v6Zm4,0V17h2v6Zm4,0V17h2v6Zm6,0H45V17h2ZM15,17v6H13V17Zm40,6H53V17h2Z"/>
<path d="M18,33H30a1,1,0,0,0,0-2H18a1,1,0,0,0,0,2Z"/>
<path d="M43.889,38a1,1,0,0,0-1,1v4a1,1,0,0,0,2,0V39A1,1,0,0,0,43.889,38Z"/>
<rect class="cls-4" height="4" width="4" x="19" y="37"/>
<rect class="cls-4" height="4" width="4" x="25" y="43"/>
<path d="M18,49H30a1,1,0,0,0,1-1V36a1,1,0,0,0-1-1H18a1,1,0,0,0-1,1V48A1,1,0,0,0,18,49Zm1-12h4v4H19Zm6,0h4v4H25Zm4,10H25V43h4ZM19,43h4v4H19Z"/>
</g>
</svg>